# xmcd
#
# Track frame offsets: 
#        150
#        18704
#        37075
#        54366
#        69874
#        89149
#        106176
#        124821
#        142074
#        164769
#
# Disc length: 2446 seconds
#
# Revision: 1
# Processed by: cddbd v1.5.2PL0 Copyright (c) Steve Scherf et al.
# Submitted via: ExactAudioCopy v0.99pb5
#
DISCID=92098c0a
DTITLE=Roy Roberts - Strange Love
DYEAR=2011
DGENRE=Blues, Modern Electric Blues
TTITLE0=My Love Bone
TTITLE1=I Truly Love You
TTITLE2=Hey Baby
TTITLE3=Strange Love
TTITLE4=I'm Never Gonna Stop
TTITLE5=Wait For Me
TTITLE6=A Woman Needs Love
TTITLE7=We Still Together
TTITLE8=The Next Time
TTITLE9=I Can't Wait
EXTD=
EXTT0=
EXTT1=
EXTT2=
EXTT3=
EXTT4=
EXTT5=
EXTT6=
EXTT7=
EXTT8=
EXTT9=
PLAYORDER=
